<svg width="960" height="300" viewBox="0 0 960 300" fill="none" xmlns="http://www.w3.org/2000/svg" role="img" aria-labelledby="title desc">
  <title id="title">ReeL logo</title>
  <desc id="desc">A single-color ReeL wordmark. The letters R and L frame the split keyboard idea, while the tall narrow ee forms suggest the vertical reel-like rotary encoder.</desc>
  <g fill="#111111">
    <path d="M89 248V52H180C225 52 256 80 256 120C256 148 240 171 214 183L268 248H214L167 191H139V248H89ZM139 151H176C194 151 207 139 207 122C207 105 194 93 176 93H139V151Z"/>
    <path d="M317 250C273 250 244 219 244 172C244 124 273 92 316 92C358 92 386 122 386 169V184H291C294 202 305 212 322 212C336 212 346 206 354 195L383 220C368 240 348 250 317 250ZM292 155H340C338 139 329 130 316 130C302 130 294 139 292 155Z"/>
    <path d="M458 250C414 250 385 219 385 172C385 124 414 92 457 92C499 92 527 122 527 169V184H432C435 202 446 212 463 212C477 212 487 206 495 195L524 220C509 240 489 250 458 250ZM433 155H481C479 139 470 130 457 130C443 130 435 139 433 155Z"/>
    <path d="M584 248V52H635V205H727V248H584Z"/>
  </g>
  <g stroke="#111111" stroke-width="14" stroke-linecap="round">
    <path d="M405 68V235"/>
    <path d="M550 68V235"/>
  </g>
</svg>
